<?xml version="1.0" encoding="utf-8"?>
<svg viewBox="0 0 376.865 132.514" xmlns="http://www.w3.org/2000/svg">
  <defs>
    <clipPath id="clipPath18" clipPathUnits="userSpaceOnUse">
      <path id="path16" d="M 0,841.89 H 595.28 V 0 H 0 Z"/>
    </clipPath>
  </defs>
  <g transform="matrix(1.333333, 0, 0, -1.333333, -182.062881, 923.577148)" id="g10">
    <g id="g12">
      <g clip-path="url(#clipPath18)" id="g14">
        <g transform="translate(210.0376,619.2676)" id="g32">
          <path id="path34" style="fill:#fff;fill-opacity:1;fill-rule:nonzero;stroke:none" d="M 0,0 C -0.312,-0.99 -0.58,-2.015 -0.806,-3.075 -1.033,-4.136 -1.202,-5.104 -1.315,-5.98 -1.542,-7.026 -1.683,-8.044 -1.739,-9.034 h -0.17 c -0.113,0.99 -0.297,2.008 -0.551,3.054 -0.169,0.876 -0.353,1.844 -0.551,2.905 -0.198,1.06 -0.41,2.085 -0.636,3.075 l -4.374,17.439 c -1.888,7.416 -3.062,25.971 -30.431,28.472 -27.369,2.502 -32.197,16.311 -32.197,16.311 2.193,-42.177 31.85,-47.293 49.561,-46.539 -2.045,3.793 -5.976,5.375 -12.742,6.231 -5.386,0.683 -8.569,2.685 -8.569,2.685 -11.424,6.797 -12.048,19.172 -12.048,19.172 0.955,-2.06 4.017,-13.121 19.559,-16.647 11.244,-2.552 14.29,-7.643 15.666,-11.148 L -8.016,-21.969 H 4.411 l 18.49,62.894 H 10.136 Z"/>
        </g>
        <path id="path36" style="fill:#fff;fill-opacity:1;fill-rule:nonzero;stroke:none" d="m 237.088,597.299 h 11.408 v 46.82 h -11.408 z"/>
        <g transform="translate(291.585,641.0659)" id="g38">
          <path id="path40" style="fill:#fff;fill-opacity:1;fill-rule:nonzero;stroke:none" d="m 0,0 c -3.167,2.714 -8.101,4.071 -14.801,4.071 -3.704,0 -7.019,-0.318 -9.945,-0.954 -2.926,-0.636 -5.577,-1.435 -7.952,-2.396 v -44.488 h 11.281 v 37.278 c 0.764,0.282 1.753,0.537 2.969,0.763 1.215,0.226 2.487,0.34 3.817,0.34 2.601,0 4.566,-0.665 5.895,-1.993 1.328,-1.329 1.993,-3.181 1.993,-5.556 V -43.767 H 4.75 v 32.062 C 4.75,-6.616 3.166,-2.714 0,0"/>
        </g>
        <g transform="translate(330.7295,605.6533)" id="g42">
          <path id="path44" style="fill:#fff;fill-opacity:1;fill-rule:nonzero;stroke:none" d="m 0,0 c -0.65,-0.312 -1.584,-0.551 -2.799,-0.721 -1.216,-0.17 -2.432,-0.255 -3.647,-0.255 -2.941,0 -5.224,0.609 -6.85,1.825 -1.626,1.214 -2.438,2.925 -2.438,5.131 0,1.724 0.43,3.11 1.294,4.156 0.862,1.046 2.006,1.859 3.434,2.439 1.428,0.579 3.097,0.968 5.005,1.166 1.908,0.197 3.908,0.353 6.001,0.467 z m 6.086,35.625 c -3.096,2.572 -7.528,3.859 -13.296,3.859 -3.308,0 -6.439,-0.36 -9.394,-1.082 -2.955,-0.721 -5.393,-1.477 -7.315,-2.269 l 2.884,-8.015 c 1.555,0.706 3.505,1.35 5.852,1.93 2.347,0.579 4.594,0.869 6.744,0.869 2.6,0 4.657,-0.509 6.17,-1.527 C -0.757,28.373 0,26.647 0,24.216 v -2.417 c -3.421,-0.17 -6.716,-0.516 -9.882,-1.039 -3.167,-0.524 -5.966,-1.364 -8.396,-2.524 -2.433,-1.159 -4.383,-2.742 -5.853,-4.75 -1.471,-2.007 -2.206,-4.594 -2.206,-7.76 0,-4.807 1.668,-8.532 5.005,-11.175 3.336,-2.645 8.411,-3.966 15.225,-3.966 1.696,0 3.364,0.093 5.004,0.276 1.64,0.184 3.203,0.431 4.687,0.743 1.484,0.31 2.834,0.67 4.05,1.081 1.215,0.409 2.248,0.84 3.095,1.294 v 28.838 c 0,5.965 -1.547,10.234 -4.643,12.808"/>
        </g>
        <g transform="translate(371.5703,665.7485)" id="g46">
          <path id="path48" style="fill:#fff;fill-opacity:1;fill-rule:nonzero;stroke:none" d="m 0,0 c -2.433,0 -4.687,-0.333 -6.765,-0.997 -2.078,-0.665 -3.887,-1.661 -5.428,-2.99 -1.541,-1.329 -2.729,-3.025 -3.563,-5.089 -0.834,-2.064 -1.251,-4.51 -1.251,-7.337 v -5.216 h -5.555 v -8.864 h 5.555 V -68.45 h 11.196 v 37.957 h 8.695 v 8.864 h -8.695 v 5.216 c 0,2.545 0.771,4.354 2.312,5.429 1.54,1.074 3.441,1.611 5.704,1.611 0.396,0 0.706,-0.014 0.933,-0.042 0.226,-0.029 0.395,-0.043 0.508,-0.043 v 9.203 C 3.194,-0.142 2.622,-0.071 1.93,-0.042 1.236,-0.015 0.594,0 0,0"/>
        </g>
        <g transform="translate(405.6006,605.6533)" id="g50">
          <path id="path52" style="fill:#fff;fill-opacity:1;fill-rule:nonzero;stroke:none" d="m 0,0 c -0.65,-0.312 -1.584,-0.551 -2.799,-0.721 -1.216,-0.17 -2.432,-0.255 -3.647,-0.255 -2.941,0 -5.224,0.609 -6.85,1.825 -1.626,1.214 -2.438,2.925 -2.438,5.131 0,1.724 0.43,3.11 1.294,4.156 0.862,1.046 2.006,1.859 3.434,2.439 1.428,0.579 3.097,0.968 5.005,1.166 1.908,0.197 3.908,0.353 6.001,0.467 z m 6.086,35.625 c -3.096,2.572 -7.528,3.859 -13.296,3.859 -3.308,0 -6.439,-0.36 -9.394,-1.082 -2.955,-0.721 -5.393,-1.477 -7.315,-2.269 l 2.884,-8.015 c 1.555,0.706 3.505,1.35 5.852,1.93 2.347,0.579 4.594,0.869 6.744,0.869 2.6,0 4.657,-0.509 6.17,-1.527 C -0.757,28.373 0,26.647 0,24.216 v -2.417 c -3.421,-0.17 -6.716,-0.516 -9.882,-1.039 -3.167,-0.524 -5.966,-1.364 -8.396,-2.524 -2.433,-1.159 -4.383,-2.742 -5.853,-4.75 -1.471,-2.007 -2.206,-4.594 -2.206,-7.76 0,-4.807 1.668,-8.532 5.005,-11.175 3.336,-2.645 8.411,-3.966 15.225,-3.966 1.696,0 3.364,0.093 5.004,0.276 1.64,0.184 3.203,0.431 4.687,0.743 1.484,0.31 2.834,0.67 4.05,1.081 1.215,0.409 2.248,0.84 3.095,1.294 v 28.838 c 0,5.965 -1.547,10.234 -4.643,12.808"/>
        </g>
      </g>
    </g>
  </g>
</svg>