<svg width="117" height="32" viewBox="0 0 117 32" fill="none" xmlns="http://www.w3.org/2000/svg">
<path d="M23.6036 14.5143C24.9733 13.1478 24.9733 10.9323 23.6036 9.56578C22.2339 8.19928 20.0131 8.19928 18.6434 9.56578C17.2737 10.9323 17.2737 13.1478 18.6434 14.5143C20.0131 15.8808 22.2339 15.8808 23.6036 14.5143Z" fill="white"/>
<path d="M6.6595 17.9147C7.34713 17.2287 7.34713 16.1165 6.6595 15.4305C5.97187 14.7445 4.85701 14.7445 4.16938 15.4305C3.48175 16.1165 3.48175 17.2287 4.16938 17.9147C4.857 18.6008 5.97187 18.6008 6.6595 17.9147Z" fill="white"/>
<path d="M29.4905 17.9094C30.1782 17.2234 30.1782 16.1111 29.4905 15.4251C28.8029 14.7391 27.6881 14.7391 27.0004 15.4251C26.3128 16.1111 26.3128 17.2234 27.0004 17.9094C27.6881 18.5954 28.8029 18.5954 29.4905 17.9094Z" fill="white"/>
<path d="M18.075 17.9121C18.7627 17.226 18.7627 16.1138 18.075 15.4278C17.3874 14.7418 16.2725 14.7418 15.5849 15.4278C14.8973 16.1138 14.8973 17.226 15.5849 17.9121C16.2725 18.5981 17.3874 18.5981 18.075 17.9121Z" fill="white"/>
<path d="M12.1968 9.89843C11.5152 9.21843 10.4076 9.21843 9.71182 9.89843C9.08702 10.5218 9.03022 11.4851 9.54142 12.1651C10.4928 14.3893 10.3934 16.9534 9.21482 19.1209C8.37702 20.4668 8.54742 22.2659 9.71182 23.4418C11.075 24.8018 13.3044 24.8018 14.6676 23.4418C16.0308 22.0818 16.0308 19.9001 14.696 18.5259C12.8358 16.5851 12.1542 13.9359 12.6512 11.4568C12.779 10.9043 12.6228 10.3234 12.1968 9.89843Z" fill="white"/>
<path d="M21.1286 23.1017C21.8102 23.7817 22.9178 23.7817 23.6136 23.1017C24.2384 22.4783 24.2952 21.515 23.784 20.835C22.8326 18.6108 22.932 16.0467 24.1106 13.8792C24.9484 12.5333 24.778 10.7342 23.6136 9.55833C22.2504 8.19833 20.021 8.19833 18.6578 9.55833C17.2946 10.9183 17.2946 13.1 18.6294 14.4742C20.4896 16.415 21.1712 19.0642 20.6742 21.5433C20.5464 22.0958 20.7026 22.6767 21.1286 23.1017Z" fill="white"/>
<path d="M37 24.1974V23.6815H42.6299V24.1974H37ZM39.5054 30.0009V25.1431H40.0238V30.0009H39.5054Z" fill="#5B5B5B"/>
<path d="M45.5242 24.1974V23.6815H51.0965V24.1974H45.5242ZM46.0425 29.485H51.0965V30.0009H45.5242V25.1431H46.0425V26.3325H50.4342V26.8484H46.0425V29.485Z" fill="#5B5B5B"/>
<path d="M58.7999 28.1088H59.3902C59.1599 28.6103 58.8143 29.0545 58.3679 29.3841C57.8208 29.7853 57.1584 30.0003 56.4673 30.0003C55.6898 30.0003 54.9554 29.728 54.3651 29.2265C53.7891 28.7249 53.4147 28.0371 53.2996 27.292C53.2708 27.1343 53.2708 26.9767 53.2708 26.8191C53.2708 26.6758 53.2852 26.5182 53.2996 26.3749C53.4003 25.6297 53.7747 24.9276 54.3651 24.4261C54.941 23.9245 55.6898 23.6379 56.4673 23.6379C57.1728 23.6379 57.8496 23.8672 58.3967 24.2828C58.8575 24.6267 59.2175 25.0996 59.4334 25.6297H58.8575C58.4111 24.727 57.4896 24.1538 56.4673 24.1538C55.2002 24.1538 54.1059 25.0566 53.8467 26.2889C53.8179 26.4609 53.7891 26.6328 53.7891 26.8191C53.7891 27.0054 53.8035 27.1917 53.8467 27.3636C54.1059 28.5816 55.2002 29.4701 56.4529 29.4701C57.432 29.4844 58.3391 28.9542 58.7999 28.1088Z" fill="#5B5B5B"/>
<path d="M67.828 23.6815V30.0009H67.3096V26.8627H62.846V30.0009H62.3276V23.6815H62.846V26.3468H67.3096V23.6815H67.828Z" fill="#5B5B5B"/>
<path d="M75.6895 23.667V29.6424L75.0992 29.0549L71.6579 25.6158L71.2691 25.2289L70.7507 24.7131V23.9679L75.1856 28.3814V23.667H75.6895ZM70.7219 26.06L71.2403 26.5759V30.0007H70.7219V26.06Z" fill="#5B5B5B"/>
<path d="M84.7898 26.8191C84.7898 28.5816 83.3499 30.0003 81.5933 30.0003C79.8222 30.0003 78.3967 28.5673 78.3967 26.8191C78.3967 25.0566 79.8366 23.6379 81.5933 23.6379C83.3499 23.6379 84.7898 25.0566 84.7898 26.8191ZM84.2282 26.8191C84.2282 25.3718 83.0475 24.1825 81.5789 24.1825C80.1102 24.1825 78.9295 25.3575 78.9295 26.8191C78.9295 28.2664 80.1102 29.4557 81.5789 29.4557C83.0475 29.4557 84.2282 28.2664 84.2282 26.8191Z" fill="#5B5B5B"/>
<path d="M92.5363 29.4841V30H87.6838V23.609H88.2022V29.4698H92.5363V29.4841Z" fill="#5B5B5B"/>
<path d="M100.628 26.8191C100.628 28.5816 99.1886 30.0003 97.4319 30.0003C95.6752 30.0003 94.2354 28.5673 94.2354 26.8191C94.2354 25.0566 95.6752 23.6379 97.4319 23.6379C99.1886 23.6379 100.628 25.0566 100.628 26.8191ZM100.067 26.8191C100.067 25.3718 98.8862 24.1825 97.4175 24.1825C95.9632 24.1825 94.7681 25.3575 94.7681 26.8191C94.7681 28.2664 95.9488 29.4557 97.4175 29.4557C98.8718 29.4557 100.067 28.2664 100.067 26.8191Z" fill="#5B5B5B"/>
<path d="M109.21 26.3466V30.0007H106.489C105.625 30.0007 104.804 29.6711 104.199 29.0836C103.58 28.4817 103.235 27.6936 103.235 26.8338C103.235 25.9884 103.58 25.1859 104.199 24.5841C104.818 23.9966 105.625 23.667 106.489 23.667H109.196V24.1829H106.129H106.114C104.761 24.3548 103.739 25.5012 103.739 26.8195C103.739 28.1378 104.761 29.2699 106.114 29.4561H106.129H108.677V26.8338H106.647L106.402 26.318H109.21V26.3466Z" fill="#5B5B5B"/>
<path d="M117 23.6525L114.84 26.59L114.768 26.6903L114.682 26.8193L114.653 26.848L114.61 26.9053V30.0005H114.091V26.9196L114.048 26.8623L114.019 26.8336L113.933 26.7047L113.861 26.6044L111.701 23.6668H112.349L114.178 26.1458L114.336 26.3608L114.523 26.1745L114.538 26.1601L114.552 26.1458L116.381 23.6668H117V23.6525Z" fill="#5B5B5B"/>
<path d="M38.6414 2H39.6206C40.5277 2 41.2476 2.73081 41.2476 3.61924V18.565C41.2476 19.4678 40.5133 20.1842 39.6206 20.1842H38.6414C37.7343 20.1842 37.0144 19.4534 37.0144 18.565V3.61924C37 2.71648 37.7343 2 38.6414 2Z" fill="#444444"/>
<path d="M59.8655 2H58.8864C57.9793 2 57.2593 2.73081 57.2593 3.61924V8.82088H44.8475C43.9404 8.82088 43.2205 9.55169 43.2205 10.4401V11.4145C43.2205 12.3173 43.9548 13.0338 44.8475 13.0338H57.2593V18.565C57.2593 19.4678 57.9937 20.1842 58.8864 20.1842H59.8655C60.7726 20.1842 61.4926 19.4534 61.4926 18.565V11.4145V10.4401V3.61924C61.4926 2.71648 60.7582 2 59.8655 2Z" fill="#444444"/>
<path d="M89.0662 8.72057C88.3463 5.28147 85.5241 2.60184 82.0108 2.08598L80.7581 2H73.2419L71.9892 2.08598C68.4615 2.60184 65.6393 5.28147 64.9338 8.72057C64.8618 9.3654 64.8042 9.98157 64.761 10.4401V18.565C64.761 19.4678 65.4953 20.1842 66.3881 20.1842H67.3672C68.2743 20.1842 68.9942 19.4534 68.9942 18.565V12.9048C69.1958 12.9908 69.4118 13.0481 69.6422 13.0481H84.6602C84.7754 13.0481 84.8762 13.0338 84.9914 13.0194V18.5793C84.9914 19.4821 85.7257 20.1986 86.6184 20.1986H87.5975C88.5047 20.1986 89.2246 19.4678 89.2246 18.5793V10.4545C89.1958 9.96725 89.1382 9.35107 89.0662 8.72057ZM69.6566 8.82088C69.5414 8.82088 69.4262 8.83521 69.311 8.86387C69.9446 7.31627 71.4564 6.22723 73.2419 6.22723H80.7581C82.5292 6.22723 84.041 7.30194 84.6746 8.82088H69.6566Z" fill="#444444"/>
<path d="M116.827 8.72057C116.107 5.28147 113.285 2.60184 109.772 2.08598L108.519 2H101.003L99.7502 2.08598C96.2225 2.60184 93.4003 5.28147 92.6948 8.72057C92.6228 9.3654 92.5652 9.98157 92.522 10.4401V18.565C92.522 19.4678 93.2563 20.1842 94.149 20.1842H95.1282C96.0353 20.1842 96.7552 19.4534 96.7552 18.565V13.8792C96.9568 13.9652 97.1728 14.0225 97.4032 14.0225H115.359C116.266 14.0225 116.986 13.2917 116.986 12.4033V10.4544C116.957 9.96724 116.899 9.35107 116.827 8.72057ZM96.7984 9.90992C97.0576 7.83214 98.8431 6.21289 101.003 6.21289H108.519C110.636 6.21289 112.392 7.76049 112.709 9.78096H97.4176C97.2016 9.79529 96.9856 9.83828 96.7984 9.90992Z" fill="#444444"/>
<path d="M28.4998 0H3.50022C1.57717 0 0 1.57649 0 3.4987V10.6621H32V3.4987C32 1.57649 30.4228 0 28.4998 0Z" fill="#F79616"/>
<path d="M3.50022 32H28.4998C30.4228 32 32 30.4235 32 28.5012V21.3379H0V28.5012C0 30.4235 1.56334 32 3.50022 32Z" fill="#F93B15"/>
<path d="M32 10.6621H0V21.3242H32V10.6621Z" fill="#F77116"/>
<path d="M6.08811 17.3812C6.75806 16.7116 6.75806 15.6258 6.08811 14.9562C5.41816 14.2865 4.33197 14.2865 3.66202 14.9562C2.99207 15.6258 2.99207 16.7116 3.66202 17.3812C4.33197 18.0509 5.41816 18.0509 6.08811 17.3812Z" fill="white"/>
<path d="M28.332 17.3756C29.0019 16.706 29.0019 15.6202 28.332 14.9506C27.6621 14.2809 26.5759 14.2809 25.9059 14.9506C25.236 15.6202 25.236 16.7059 25.9059 17.3756C26.5759 18.0453 27.6621 18.0453 28.332 17.3756Z" fill="white"/>
<path d="M17.2102 17.3783C17.8801 16.7086 17.8801 15.6229 17.2102 14.9533C16.5402 14.2836 15.454 14.2836 14.7841 14.9533C14.1141 15.6229 14.1141 16.7086 14.7841 17.3783C15.454 18.0479 16.5402 18.0479 17.2102 17.3783Z" fill="white"/>
<path d="M13.9456 17.9636C12.1332 16.069 11.4692 13.483 11.9672 11.063C12.0641 10.5236 11.9119 9.95665 11.4968 9.54178C10.8328 8.878 9.75363 8.878 9.07573 9.54178C8.46699 10.1503 8.41165 11.0906 8.90971 11.7544C9.83664 13.9255 9.7398 16.4286 8.59151 18.5444C7.77525 19.8581 7.94127 21.6144 9.07573 22.7622C10.4039 24.0898 12.5759 24.0898 13.9041 22.7622C15.2184 21.4484 15.2322 19.305 13.9456 17.9636Z" fill="white"/>
<path d="M22.606 9.23762C21.2779 7.91005 19.1058 7.91005 17.7777 9.23762C16.4495 10.5652 16.4495 12.6948 17.75 14.0362C19.5624 15.9308 20.2264 18.5168 19.7422 20.9368C19.6454 21.4762 19.7976 22.0431 20.2126 22.458C20.8767 23.1218 21.9558 23.1218 22.6337 22.458C23.2424 21.8495 23.2978 20.9092 22.7997 20.2454C21.8728 18.0743 21.9696 15.5712 23.1179 13.4554C23.9065 12.1279 23.7405 10.3716 22.606 9.23762Z" fill="white"/>
</svg>
